<?xml version="1.0" encoding="utf-8"?>
<!-- Generator: Adobe Illustrator 22.0.0, SVG Export Plug-In . SVG Version: 6.00 Build 0)  -->
<svg version="1.1" id="图层_1" xmlns="http://www.w3.org/2000/svg" xmlns:xlink="http://www.w3.org/1999/xlink" x="0px" y="0px"
	 viewBox="0 0 64 64" style="enable-background:new 0 0 64 64;" xml:space="preserve">
<style type="text/css">
	.st0{fill:#1156AC;}
	.st1{fill:#FFFFFF;}
</style>
<g>
	<ellipse class="st0" cx="32" cy="31.1" rx="31.9" ry="21"/>
	<g>
		<path class="st1" d="M32,12.1c3.4,0,6.6,1.3,9,3.7s3.7,5.6,3.7,9s-1.3,6.6-3.7,9c-2.4,2.4-5.6,3.7-9,3.7s-6.6-1.3-9-3.7
			c-2.4-2.4-3.7-5.6-3.7-9s1.3-6.6,3.7-9S28.6,12.1,32,12.1 M32,10.2c-8.1,0-14.6,6.5-14.6,14.6S24,39.5,32,39.5s14.6-6.5,14.6-14.6
			S40.1,10.2,32,10.2L32,10.2z"/>
		<path class="st1" d="M25.1,24c3.4,0,6.6,1.3,9,3.7c2.4,2.4,3.7,5.6,3.7,9c0,3.4-1.3,6.6-3.7,9c-2.4,2.4-5.6,3.7-9,3.7
			s-6.6-1.3-9-3.7c-2.4-2.4-3.7-5.6-3.7-9c0-3.4,1.3-6.6,3.7-9C18.5,25.4,21.7,24,25.1,24 M25.1,22.2c-8.1,0-14.6,6.5-14.6,14.6
			s6.5,14.6,14.6,14.6s14.6-6.5,14.6-14.6S33.2,22.2,25.1,22.2L25.1,22.2z"/>
		<path class="st1" d="M38.9,24c3.4,0,6.6,1.3,9,3.7s3.7,5.6,3.7,9c0,3.4-1.3,6.6-3.7,9s-5.6,3.7-9,3.7c-3.4,0-6.6-1.3-9-3.7
			s-3.7-5.6-3.7-9c0-3.4,1.3-6.6,3.7-9S35.5,24,38.9,24 M38.9,22.2c-8.1,0-14.6,6.5-14.6,14.6s6.5,14.6,14.6,14.6
			s14.6-6.5,14.6-14.6S47,22.2,38.9,22.2L38.9,22.2z"/>
	</g>
</g>
</svg>
