<?xml version="1.0" encoding="utf-8"?>
<!-- Generator: Adobe Illustrator 22.0.0, SVG Export Plug-In . SVG Version: 6.00 Build 0)  -->
<svg version="1.1" id="图层_1" xmlns="http://www.w3.org/2000/svg" xmlns:xlink="http://www.w3.org/1999/xlink" x="0px" y="0px"
	 viewBox="0 0 150.5 42.3" style="enable-background:new 0 0 150.5 42.3;" xml:space="preserve">
<style type="text/css">
	.st0{fill:#1156AC;}
	.st1{fill:#FFFFFF;stroke:#FFFFFF;stroke-width:0.25;stroke-linejoin:round;stroke-miterlimit:10;}
	.st2{fill:#000111;}
</style>
<ellipse class="st0" cx="32.4" cy="21.3" rx="31.2" ry="20.6"/>
<g>
	<path class="st1" d="M32.4,4.2c3.1,0,5.8,1.2,8,3.3c2.2,2.2,3.3,5,3.3,8s-1.2,5.8-3.3,8s-5,3.3-8,3.3s-5.8-1.2-8-3.3s-3.3-5-3.3-8
		s1.2-5.8,3.3-8S29.3,4.2,32.4,4.2 M32.4,2.6c-7.2,0-13,5.8-13,13s5.8,13,13,13s13-5.8,13-13S39.5,2.6,32.4,2.6L32.4,2.6z"/>
	<path class="st1" d="M26.2,14.8c3.1,0,5.8,1.2,8,3.3s3.3,5,3.3,8s-1.2,5.8-3.3,8s-5,3.3-8,3.3s-5.8-1.2-8-3.3s-3.3-5-3.3-8
		s1.2-5.8,3.3-8C20.4,16.1,23.2,14.8,26.2,14.8 M26.2,13.2c-7.2,0-13,5.8-13,13s5.8,13,13,13s13-5.8,13-13S33.4,13.2,26.2,13.2
		L26.2,13.2z"/>
	<path class="st1" d="M38.5,14.8c3.1,0,5.8,1.2,8,3.3c2.2,2.2,3.3,5,3.3,8s-1.2,5.8-3.3,8c-2.2,2.2-5,3.3-8,3.3
		c-3.1,0-5.8-1.2-8-3.3s-3.3-5-3.3-8s1.2-5.8,3.3-8S35.4,14.8,38.5,14.8 M38.5,13.2c-7.2,0-13,5.8-13,13s5.8,13,13,13s13-5.8,13-13
		S45.7,13.2,38.5,13.2L38.5,13.2z"/>
</g>
<g>
	<path class="st2" d="M69.8,20.9h18v2.5h-18V20.9z M70.1,5.3h17.4v2.4H70.1V5.3z M70.1,13h17.4v2.5H70.1V13z"/>
	<path class="st2" d="M90.3,12.1h1.9V7.5h-1.8V5.1h6.3v2.4h-1.9v4.6h1.9v2.4h-1.9v6.7h1.9v2.4h-6.3v-2.4h1.9v-6.7h-1.9L90.3,12.1
		L90.3,12.1z M99.9,7.6h-2.7V5.2h11.5v2.4h-6.1l-0.2,0.7h2.1v0.9h2.5l0.9,10.7c0,0.3,0.1,0.5,0.1,0.6s0.1,0.1,0.3,0.1h0.3v2.3H107
		c-0.5,0-0.8-0.1-1-0.2s-0.3-0.3-0.4-0.6c-0.1-0.2-0.2-0.5-0.2-0.8l-1-11.4v13.9h-2.5V11.5l-1.4,9.9c0,0.1-0.1,0.3-0.1,0.6
		c-0.1,0.3-0.2,0.6-0.4,0.8c-0.2,0.2-0.7,0.3-1.4,0.3h-1.4V21h0.3c0.3,0,0.5,0,0.5-0.1s0.1-0.2,0.1-0.3v-0.2L99.9,7.6z"/>
	<path class="st2" d="M112.2,16.6V9.5H111V7.4h0.5c0.2,0,0.4-0.1,0.5-0.2s0.3-0.3,0.6-0.6l1.1-1.6h2.7l-0.6,0.8h3.8l0.5-0.8h2.6
		l0.3,0.8h6v2h-6.3v0.8h6.3v2h-6.3v0.8h6.3v2h-6.3v0.7h6.3v2h-14v0.5H112.2z M111.2,23.8v-2h1.5c0.4,0,0.6,0,0.8-0.1
		c0.2-0.1,0.3-0.2,0.5-0.4l0.9-1.4h2.6l-1.1,2.3c-0.3,0.7-0.7,1.1-1,1.3c-0.4,0.2-0.7,0.3-1.1,0.3C114.3,23.8,111.2,23.8,111.2,23.8
		z M111.2,19.2v-2h7.6v-0.6h2.6v0.6h7.6v2h-7.6v4.4h-2.6v-4.4H111.2z M119.9,7.8H115v0.8h4.9V7.8z M119.9,10.6H115v0.8h4.9V10.6z
		 M119.9,13.4H115v0.7h4.9V13.4z M125.4,19.8l0.7,1.1c0.2,0.4,0.4,0.6,0.5,0.7s0.5,0.1,0.9,0.1h1.3v2h-2.5c-0.3,0-0.7-0.1-1.2-0.2
		s-0.8-0.5-1.1-1.1l-1.1-2.6H125.4z"/>
	<path class="st2" d="M131.9,5.3h17.8v16.1c0,0.3,0,0.7-0.1,1s-0.2,0.6-0.4,0.7c-0.2,0.2-0.4,0.3-0.7,0.4s-0.7,0.2-1.1,0.2h-15.6
		V5.3H131.9z M147,7.5h-12.5v13.9H146c0.4,0,0.7-0.1,0.8-0.2s0.2-0.4,0.2-0.8V7.5z M135.4,17.5h0.8c0.3,0,0.5,0,0.7-0.1
		c0.1-0.1,0.3-0.2,0.4-0.5l1.6-4h2.5l-2,5.1c-0.2,0.6-0.5,1-0.8,1.2s-0.7,0.3-1.3,0.3h-1.7v-2H135.4z M142.5,9.7V8.5h2.6v1.2h1.2
		v2.2H145v6.8c0,0.4,0,0.7-0.1,0.9c-0.1,0.2-0.2,0.5-0.4,0.7s-0.7,0.3-1.5,0.3h-2.4v-2.1h1.1c0.3,0,0.5-0.1,0.6-0.2s0.2-0.3,0.2-0.6
		v-5.8h-7V9.7H142.5z"/>
</g>
<g>
	<path class="st2" d="M76.1,29.9v2h-0.2c-0.1-0.5-0.2-0.8-0.4-1c-0.1-0.2-0.3-0.4-0.6-0.5c-0.1-0.1-0.4-0.1-0.7-0.1h-0.6V36
		c0,0.4,0,0.6,0.1,0.7c0,0.1,0.1,0.2,0.2,0.2C74,37,74.2,37,74.4,37h0.2v0.2h-3.9V37h0.2c0.2,0,0.4,0,0.5-0.1s0.2-0.1,0.2-0.3
		c0-0.1,0.1-0.3,0.1-0.7v-5.7h-0.5c-0.5,0-0.9,0.1-1.1,0.3c-0.3,0.3-0.5,0.7-0.6,1.3h-0.2v-2h6.8V29.9z"/>
	<path class="st2" d="M78.6,32.2v1.2c0.3-0.5,0.6-0.9,0.9-1.1c0.3-0.2,0.5-0.3,0.7-0.3s0.4,0.1,0.5,0.2c0.1,0.1,0.2,0.3,0.2,0.5
		s-0.1,0.4-0.2,0.6c-0.1,0.1-0.3,0.2-0.4,0.2c-0.2,0-0.4-0.1-0.5-0.2c-0.1-0.1-0.2-0.2-0.3-0.2h-0.1c-0.1,0-0.2,0-0.3,0.1
		c-0.1,0.1-0.3,0.3-0.3,0.5c-0.1,0.4-0.2,0.7-0.2,1.2v1.2v0.3c0,0.2,0,0.3,0,0.4c0,0.1,0.1,0.2,0.2,0.2s0.2,0.1,0.4,0.1v0.2h-2.8
		v-0.2c0.2,0,0.4-0.1,0.5-0.2c0.1-0.1,0.1-0.4,0.1-0.8v-2.8c0-0.3,0-0.5,0-0.6s-0.1-0.2-0.2-0.2s-0.2-0.1-0.4-0.1v-0.2
		C76.4,32.2,78.6,32.2,78.6,32.2z"/>
	<path class="st2" d="M83.9,32.2v4c0,0.4,0,0.6,0.1,0.7c0.1,0.1,0.2,0.2,0.5,0.2v0.2h-2.8v-0.2c0.2,0,0.4-0.1,0.5-0.2
		c0.1-0.1,0.1-0.3,0.1-0.7v-3c0-0.4,0-0.6-0.1-0.7c-0.1-0.1-0.2-0.2-0.5-0.2v-0.2h2.2V32.2z M83.1,29.7c0.2,0,0.4,0.1,0.6,0.2
		c0.2,0.2,0.2,0.4,0.2,0.6s-0.1,0.4-0.2,0.6c-0.2,0.2-0.4,0.2-0.6,0.2s-0.4-0.1-0.6-0.2c-0.2-0.2-0.2-0.4-0.2-0.6s0.1-0.4,0.2-0.6
		C82.7,29.8,82.9,29.7,83.1,29.7z"/>
	<path class="st2" d="M88.5,35.3h-3.2v-1.1h3.2V35.3z"/>
	<path class="st2" d="M92.2,33.9V36c0,0.4,0,0.7,0.1,0.8c0,0.1,0.1,0.2,0.3,0.2c0.1,0.1,0.4,0.1,0.7,0.1v0.2h-3.8v-0.2
		c0.3,0,0.6,0,0.7-0.1s0.2-0.1,0.3-0.2c0-0.1,0.1-0.4,0.1-0.8v-4.8c0-0.4,0-0.7-0.1-0.8c0-0.1-0.1-0.2-0.3-0.2
		c-0.1-0.1-0.4-0.1-0.7-0.1v-0.2h3.4c0.9,0,1.6,0.1,2,0.2s0.8,0.4,1,0.7c0.3,0.3,0.4,0.7,0.4,1.2c0,0.5-0.2,1-0.6,1.4
		c-0.3,0.2-0.6,0.4-1.1,0.5l1.8,2.5c0.2,0.3,0.4,0.5,0.5,0.6s0.3,0.2,0.5,0.2v0.2h-2.3L92.7,34L92.2,33.9L92.2,33.9z M92.2,30.3v3.2
		h0.3c0.5,0,0.9,0,1.1-0.1c0.3-0.1,0.4-0.3,0.6-0.5c0.1-0.2,0.2-0.6,0.2-0.9c0-0.6-0.1-1-0.4-1.3s-0.7-0.4-1.3-0.4
		C92.7,30.3,92.2,30.3,92.2,30.3z"/>
	<path class="st2" d="M100.1,32.2v4c0,0.4,0,0.6,0.1,0.7c0.1,0.1,0.2,0.2,0.5,0.2v0.2H98v-0.2c0.2,0,0.4-0.1,0.5-0.2
		c0.1-0.1,0.1-0.3,0.1-0.7v-3c0-0.4,0-0.6-0.1-0.7c-0.1-0.1-0.2-0.2-0.5-0.2v-0.2h2.1V32.2z M99.4,29.7c0.2,0,0.4,0.1,0.6,0.2
		c0.2,0.2,0.2,0.4,0.2,0.6s-0.1,0.4-0.2,0.6c-0.2,0.2-0.4,0.2-0.6,0.2s-0.4-0.1-0.6-0.2c-0.2-0.2-0.2-0.4-0.2-0.6s0.1-0.4,0.2-0.6
		C98.9,29.8,99.1,29.7,99.4,29.7z"/>
	<path class="st2" d="M103.8,32.2v0.7c0.3-0.3,0.5-0.5,0.8-0.6c0.2-0.1,0.5-0.2,0.8-0.2s0.6,0.1,0.8,0.3c0.2,0.2,0.4,0.4,0.4,0.7
		c0.1,0.2,0.1,0.6,0.1,1.2v2c0,0.4,0,0.6,0.1,0.7c0.1,0.1,0.2,0.2,0.4,0.2v0.2h-2.6v-0.2c0.2,0,0.3-0.1,0.4-0.2
		c0.1-0.1,0.1-0.3,0.1-0.7V34c0-0.4,0-0.7,0-0.8s-0.1-0.2-0.2-0.3s-0.2-0.1-0.3-0.1c-0.3,0-0.6,0.2-0.9,0.7v2.7c0,0.4,0,0.6,0.1,0.7
		c0.1,0.1,0.2,0.2,0.4,0.2v0.2h-2.6v-0.2c0.2,0,0.4-0.1,0.5-0.2c0.1-0.1,0.1-0.3,0.1-0.7v-2.9c0-0.4,0-0.6-0.1-0.7
		c-0.1-0.1-0.2-0.2-0.4-0.2v-0.2C101.7,32.2,103.8,32.2,103.8,32.2z"/>
	<path class="st2" d="M111.6,32.3h1.7v0.6h-1c0.2,0.2,0.3,0.3,0.4,0.5s0.1,0.4,0.1,0.6c0,0.4-0.1,0.7-0.3,0.9
		c-0.2,0.3-0.5,0.5-0.8,0.6c-0.3,0.2-0.7,0.2-0.9,0.2c0,0-0.2,0-0.7,0c-0.2,0-0.3,0.1-0.4,0.2c-0.1,0.1-0.2,0.2-0.2,0.4
		c0,0.1,0,0.2,0.1,0.3s0.3,0.1,0.5,0.1h0.9c0.8,0,1.3,0.1,1.6,0.3c0.4,0.2,0.6,0.6,0.6,1.1c0,0.3-0.1,0.6-0.3,0.8
		c-0.2,0.3-0.4,0.4-0.7,0.6c-0.5,0.2-1,0.3-1.6,0.3c-0.5,0-0.9,0-1.3-0.1s-0.7-0.2-0.8-0.4c-0.2-0.2-0.2-0.3-0.2-0.5
		s0.1-0.3,0.2-0.5c0.1-0.1,0.4-0.2,0.7-0.3c-0.5-0.2-0.7-0.6-0.7-1c0-0.3,0.1-0.5,0.3-0.7c0.2-0.2,0.5-0.4,0.9-0.6
		c-0.5-0.2-0.8-0.4-1.1-0.7c-0.2-0.3-0.3-0.6-0.3-1c0-0.5,0.2-0.9,0.6-1.3c0.4-0.4,0.9-0.5,1.6-0.5
		C110.9,32.1,111.3,32.1,111.6,32.3z M110.4,38.1c-0.4,0-0.6,0-0.7,0.1c-0.2,0.1-0.3,0.3-0.3,0.5s0.1,0.4,0.3,0.5
		c0.2,0.2,0.6,0.2,1.2,0.2c0.5,0,0.9-0.1,1.2-0.2c0.3-0.1,0.4-0.3,0.4-0.6c0-0.1,0-0.2-0.1-0.2c-0.1-0.1-0.2-0.2-0.4-0.2
		C111.8,38.1,111.2,38.1,110.4,38.1z M110.7,32.4c-0.2,0-0.4,0.1-0.5,0.3S110,33.4,110,34c0,0.5,0.1,0.9,0.2,1.1
		c0.1,0.2,0.3,0.3,0.5,0.3s0.4-0.1,0.5-0.3s0.2-0.6,0.2-1.2c0-0.7-0.1-1.1-0.2-1.3C111.1,32.5,110.9,32.4,110.7,32.4z"/>
	<path class="st2" d="M125,29.8v2.6h-0.2c-0.2-0.7-0.6-1.3-1.1-1.6c-0.5-0.4-1-0.6-1.6-0.6s-1,0.2-1.4,0.5s-0.6,0.7-0.8,1.3
		c-0.2,0.6-0.2,1.1-0.2,1.7c0,0.7,0.1,1.3,0.3,1.9c0.2,0.5,0.4,0.9,0.8,1.2s0.8,0.4,1.3,0.4c0.2,0,0.4,0,0.5-0.1
		c0.2,0,0.4-0.1,0.6-0.2v-1.5c0-0.3,0-0.5-0.1-0.6c0-0.1-0.1-0.2-0.2-0.2c-0.1-0.1-0.3-0.1-0.5-0.1h-0.2v-0.2h3.6v0.2
		c-0.3,0-0.5,0.1-0.6,0.1c-0.1,0.1-0.2,0.1-0.2,0.3c0,0.1,0,0.2,0,0.5v1.5c-0.5,0.2-1,0.4-1.5,0.5s-1,0.2-1.6,0.2
		c-0.7,0-1.3-0.1-1.7-0.3c-0.5-0.2-0.9-0.4-1.2-0.8c-0.4-0.3-0.6-0.7-0.8-1.1c-0.3-0.5-0.4-1.1-0.4-1.7c0-1.1,0.4-2.1,1.2-2.8
		c0.8-0.8,1.8-1.2,3-1.2c0.4,0,0.7,0,1,0.1c0.2,0,0.4,0.1,0.8,0.2s0.6,0.2,0.6,0.2c0.1,0,0.2,0,0.3-0.1
		C124.8,30,124.9,29.9,125,29.8L125,29.8L125,29.8z"/>
	<path class="st2" d="M128.9,32.2v1.2c0.3-0.5,0.6-0.9,0.9-1.1c0.3-0.2,0.5-0.3,0.7-0.3s0.4,0.1,0.5,0.2c0.1,0.1,0.2,0.3,0.2,0.5
		s-0.1,0.4-0.2,0.6c-0.1,0.1-0.3,0.2-0.4,0.2c-0.2,0-0.4-0.1-0.5-0.2c-0.1-0.1-0.2-0.2-0.3-0.2h-0.1c-0.1,0-0.2,0-0.3,0.1
		s-0.3,0.3-0.3,0.5c-0.1,0.4-0.2,0.7-0.2,1.2v1.2v0.3c0,0.2,0,0.3,0,0.4c0,0.1,0.1,0.2,0.2,0.2c0.1,0,0.2,0.1,0.4,0.1v0.2h-2.8v-0.2
		c0.2,0,0.4-0.1,0.5-0.2c0.1-0.1,0.1-0.4,0.1-0.8v-2.8c0-0.3,0-0.5,0-0.6s-0.1-0.2-0.2-0.2s-0.2-0.1-0.4-0.1v-0.2
		C126.7,32.2,128.9,32.2,128.9,32.2z"/>
	<path class="st2" d="M134.4,32.1c0.4,0,0.9,0.1,1.2,0.3c0.4,0.2,0.7,0.6,0.9,1s0.3,0.9,0.3,1.4c0,0.7-0.2,1.3-0.6,1.8
		c-0.4,0.6-1.1,0.9-1.8,0.9c-0.8,0-1.4-0.3-1.8-0.8c-0.4-0.5-0.6-1.2-0.6-1.9s0.2-1.4,0.6-1.9C133.1,32.3,133.7,32.1,134.4,32.1z
		 M134.4,32.5c-0.2,0-0.3,0.1-0.5,0.2c-0.1,0.1-0.2,0.4-0.3,0.8c0,0.4-0.1,1-0.1,1.7c0,0.4,0,0.8,0.1,1.1c0,0.3,0.1,0.5,0.3,0.6
		c0.1,0.1,0.3,0.2,0.4,0.2c0.2,0,0.3,0,0.4-0.1c0.1-0.1,0.2-0.3,0.3-0.5c0.1-0.3,0.1-1,0.1-2.1c0-0.6,0-1-0.1-1.3
		c-0.1-0.2-0.2-0.4-0.3-0.5C134.7,32.5,134.6,32.5,134.4,32.5z"/>
	<path class="st2" d="M143,32.2v4c0,0.4,0,0.6,0.1,0.7c0.1,0.1,0.2,0.2,0.4,0.2v0.2h-2.1v-0.7c-0.2,0.3-0.5,0.5-0.7,0.6
		s-0.5,0.2-0.8,0.2s-0.5-0.1-0.8-0.3c-0.2-0.2-0.4-0.4-0.5-0.6c-0.1-0.2-0.1-0.7-0.1-1.2v-2c0-0.4,0-0.6-0.1-0.7
		c-0.1-0.1-0.2-0.2-0.4-0.2v-0.2h2.1v3.5c0,0.4,0,0.6,0.1,0.7c0,0.1,0.1,0.2,0.2,0.2c0.1,0.1,0.2,0.1,0.3,0.1s0.2,0,0.4-0.1
		c0.1-0.1,0.3-0.3,0.5-0.6v-2.7c0-0.4,0-0.6-0.1-0.7c-0.1-0.1-0.2-0.2-0.4-0.2v-0.2H143z"/>
	<path class="st2" d="M146.7,36.8v1.9c0,0.3,0,0.4,0.1,0.5c0,0.1,0.1,0.2,0.2,0.2c0.1,0,0.3,0.1,0.5,0.1v0.2h-2.9v-0.2
		c0.2,0,0.4-0.1,0.5-0.2c0.1-0.1,0.1-0.3,0.1-0.7v-5.4c0-0.4,0-0.6-0.1-0.7c-0.1-0.1-0.2-0.2-0.5-0.2v-0.2h2.1v0.7
		c0.2-0.3,0.4-0.5,0.5-0.6c0.3-0.2,0.6-0.3,0.9-0.3c0.4,0,0.7,0.1,1,0.4c0.3,0.2,0.5,0.6,0.7,1s0.2,0.9,0.2,1.3c0,0.5-0.1,1-0.2,1.4
		c-0.2,0.4-0.4,0.8-0.7,1s-0.7,0.3-1.1,0.3c-0.3,0-0.5-0.1-0.8-0.2C147.1,37.2,146.9,37,146.7,36.8z M146.7,36.3
		c0.3,0.4,0.6,0.7,1,0.7c0.2,0,0.4-0.1,0.5-0.3c0.2-0.3,0.3-0.9,0.3-1.7c0-0.9-0.1-1.5-0.3-1.8c-0.1-0.2-0.3-0.3-0.6-0.3
		c-0.4,0-0.7,0.3-0.9,0.8V36.3z"/>
</g>
</svg>
