<?xml version="1.0" encoding="utf-8"?>
<!-- Generator: Adobe Illustrator 22.0.0, SVG Export Plug-In . SVG Version: 6.00 Build 0)  -->
<svg version="1.1" id="图层_1" xmlns="http://www.w3.org/2000/svg" xmlns:xlink="http://www.w3.org/1999/xlink" x="0px" y="0px"
	 viewBox="0 0 150.5 42.3" style="enable-background:new 0 0 150.5 42.3;" xml:space="preserve">
<style type="text/css">
	.st0{fill:#1156AC;}
	.st1{fill:#FFFFFF;}
	.st2{fill:#000111;}
</style>
<g>
	<ellipse class="st0" cx="32.3" cy="21.1" rx="31.5" ry="20.8"/>
	<g>
		<path class="st1" d="M32.3,2.3c3.4,0,6.5,1.3,8.9,3.7c2.4,2.4,3.7,5.6,3.7,8.9s-1.3,6.5-3.7,8.9c-2.4,2.4-5.6,3.7-8.9,3.7
			s-6.5-1.3-8.9-3.7c-2.4-2.4-3.7-5.6-3.7-8.9S21,8.4,23.4,6S28.9,2.3,32.3,2.3 M32.3,0.5c-8,0-14.5,6.5-14.5,14.5
			s6.5,14.5,14.5,14.5s14.5-6.5,14.5-14.5S40.3,0.5,32.3,0.5L32.3,0.5z"/>
		<path class="st1" d="M25.5,14.1c3.4,0,6.5,1.3,8.9,3.7c2.4,2.4,3.7,5.6,3.7,8.9s-1.3,6.5-3.7,8.9c-2.4,2.4-5.6,3.7-8.9,3.7
			s-6.5-1.3-8.9-3.7c-2.4-2.4-3.7-5.6-3.7-8.9s1.3-6.5,3.7-8.9C19,15.5,22.1,14.1,25.5,14.1 M25.5,12.3c-8,0-14.5,6.5-14.5,14.5
			s6.5,14.5,14.5,14.5S40,34.8,40,26.8S33.5,12.3,25.5,12.3L25.5,12.3z"/>
		<path class="st1" d="M39.1,14.1c3.4,0,6.5,1.3,8.9,3.7c2.4,2.4,3.7,5.6,3.7,8.9s-1.3,6.5-3.7,8.9c-2.4,2.4-5.6,3.7-8.9,3.7
			c-3.4,0-6.5-1.3-8.9-3.7s-3.7-5.6-3.7-8.9s1.3-6.5,3.7-8.9S35.7,14.1,39.1,14.1 M39.1,12.3c-8,0-14.5,6.5-14.5,14.5
			s6.5,14.5,14.5,14.5s14.5-6.5,14.5-14.5S47.1,12.3,39.1,12.3L39.1,12.3z"/>
	</g>
</g>
<g>
	<path class="st2" d="M69.8,20.9h18v2.5h-18V20.9z M70.1,5.3h17.4v2.4H70.1V5.3z M70.1,13h17.4v2.5H70.1V13z"/>
	<path class="st2" d="M90.3,12.1h1.9V7.5h-1.8V5.1h6.3v2.4h-1.9v4.6h1.9v2.4h-1.9v6.7h1.9v2.4h-6.3v-2.4h1.9v-6.7h-1.9V12.1z
		 M99.9,7.6h-2.7V5.2h11.5v2.4h-6.1l-0.2,0.7h2.1v0.9l2.5,0l0.9,10.7c0,0.3,0.1,0.5,0.1,0.6c0,0.1,0.1,0.1,0.3,0.1h0.3v2.3H107
		c-0.5,0-0.8-0.1-1-0.2c-0.2-0.1-0.3-0.3-0.4-0.6c-0.1-0.2-0.2-0.5-0.2-0.8l-1-11.4v13.9h-2.5V11.5l-1.4,9.9c0,0.1-0.1,0.3-0.1,0.6
		c-0.1,0.3-0.2,0.6-0.4,0.8c-0.2,0.2-0.7,0.3-1.4,0.3h-1.4v-2.1h0.3c0.3,0,0.5,0,0.5-0.1c0-0.1,0.1-0.2,0.1-0.3l0-0.2L99.9,7.6z"/>
	<path class="st2" d="M112.2,16.6V9.5H111V7.4l0.5,0c0.2,0,0.4-0.1,0.5-0.2c0.1-0.1,0.3-0.3,0.6-0.6l1.1-1.6h2.7l-0.6,0.8h3.8
		l0.5-0.8h2.6l0.3,0.8h6v2h-6.3v0.8h6.3v2h-6.3v0.8h6.3v2h-6.3v0.7h6.3v2H115v0.5H112.2z M111.2,23.8v-2h1.5c0.4,0,0.6,0,0.8-0.1
		c0.2-0.1,0.3-0.2,0.5-0.4l0.9-1.4h2.6l-1.1,2.3c-0.3,0.7-0.7,1.1-1,1.3c-0.4,0.2-0.7,0.3-1.1,0.3H111.2z M111.2,19.2v-2h7.6v-0.6
		h2.6v0.6h7.6v2h-7.6v4.4h-2.6v-4.4H111.2z M119.9,7.8H115v0.8h4.9V7.8z M119.9,10.6H115v0.8h4.9V10.6z M119.9,13.4H115v0.7h4.9
		V13.4z M125.4,19.8l0.7,1.1c0.2,0.4,0.4,0.6,0.5,0.7c0.1,0.1,0.5,0.1,0.9,0.1h1.3v2h-2.5c-0.3,0-0.7-0.1-1.2-0.2
		c-0.5-0.1-0.8-0.5-1.1-1.1l-1.1-2.6H125.4z"/>
	<path class="st2" d="M131.9,5.3h17.8v16.1c0,0.3,0,0.7-0.1,1c-0.1,0.3-0.2,0.6-0.4,0.7c-0.2,0.2-0.4,0.3-0.7,0.4
		c-0.3,0.1-0.7,0.2-1.1,0.2h-15.6V5.3z M147,7.5h-12.5v13.9H146c0.4,0,0.7-0.1,0.8-0.2c0.1-0.1,0.2-0.4,0.2-0.8V7.5z M135.4,17.5
		h0.8c0.3,0,0.5,0,0.7-0.1c0.1-0.1,0.3-0.2,0.4-0.5l1.6-4h2.5l-2,5.1c-0.2,0.6-0.5,1-0.8,1.2c-0.3,0.2-0.7,0.3-1.3,0.3h-1.7V17.5z
		 M142.5,9.7V8.5h2.6v1.2h1.2v2.2H145v6.8c0,0.4,0,0.7-0.1,0.9c-0.1,0.2-0.2,0.5-0.4,0.7c-0.2,0.2-0.7,0.3-1.5,0.3h-2.4v-2.1h1.1
		c0.3,0,0.5-0.1,0.6-0.2c0.1-0.1,0.2-0.3,0.2-0.6v-5.8h-7V9.7H142.5z"/>
</g>
<g>
	<path class="st2" d="M76.1,29.9v2h-0.2c-0.1-0.5-0.2-0.8-0.4-1c-0.1-0.2-0.3-0.4-0.6-0.5c-0.1-0.1-0.4-0.1-0.7-0.1h-0.6v5.7
		c0,0.4,0,0.6,0.1,0.7c0,0.1,0.1,0.2,0.2,0.2c0.1,0.1,0.3,0.1,0.5,0.1h0.2v0.2h-3.9v-0.2h0.2c0.2,0,0.4,0,0.5-0.1
		c0.1-0.1,0.2-0.1,0.2-0.3c0-0.1,0.1-0.3,0.1-0.7v-5.7h-0.5c-0.5,0-0.9,0.1-1.1,0.3c-0.3,0.3-0.5,0.7-0.6,1.3h-0.2v-2H76.1z"/>
	<path class="st2" d="M78.6,32.2v1.2c0.3-0.5,0.6-0.9,0.9-1.1c0.3-0.2,0.5-0.3,0.7-0.3c0.2,0,0.4,0.1,0.5,0.2
		c0.1,0.1,0.2,0.3,0.2,0.5c0,0.2-0.1,0.4-0.2,0.6c-0.1,0.1-0.3,0.2-0.4,0.2c-0.2,0-0.4-0.1-0.5-0.2c-0.1-0.1-0.2-0.2-0.3-0.2
		c0,0-0.1,0-0.1,0c-0.1,0-0.2,0-0.3,0.1c-0.1,0.1-0.3,0.3-0.3,0.5c-0.1,0.4-0.2,0.7-0.2,1.2v1.2l0,0.3c0,0.2,0,0.3,0,0.4
		c0,0.1,0.1,0.2,0.2,0.2c0.1,0,0.2,0.1,0.4,0.1v0.2h-2.8v-0.2c0.2,0,0.4-0.1,0.5-0.2c0.1-0.1,0.1-0.4,0.1-0.8v-2.8
		c0-0.3,0-0.5,0-0.6c0-0.1-0.1-0.2-0.2-0.2c-0.1,0-0.2-0.1-0.4-0.1v-0.2H78.6z"/>
	<path class="st2" d="M83.9,32.2v4c0,0.4,0,0.6,0.1,0.7c0.1,0.1,0.2,0.2,0.5,0.2v0.2h-2.8v-0.2c0.2,0,0.4-0.1,0.5-0.2
		c0.1-0.1,0.1-0.3,0.1-0.7v-3c0-0.4,0-0.6-0.1-0.7c-0.1-0.1-0.2-0.2-0.5-0.2v-0.2H83.9z M83.1,29.7c0.2,0,0.4,0.1,0.6,0.2
		c0.2,0.2,0.2,0.4,0.2,0.6c0,0.2-0.1,0.4-0.2,0.6c-0.2,0.2-0.4,0.2-0.6,0.2c-0.2,0-0.4-0.1-0.6-0.2c-0.2-0.2-0.2-0.4-0.2-0.6
		c0-0.2,0.1-0.4,0.2-0.6C82.7,29.8,82.9,29.7,83.1,29.7z"/>
	<path class="st2" d="M88.5,35.3h-3.2v-1.1h3.2V35.3z"/>
	<path class="st2" d="M92.2,33.9V36c0,0.4,0,0.7,0.1,0.8c0,0.1,0.1,0.2,0.3,0.2c0.1,0.1,0.4,0.1,0.7,0.1v0.2h-3.8v-0.2
		c0.3,0,0.6,0,0.7-0.1c0.1-0.1,0.2-0.1,0.3-0.2c0-0.1,0.1-0.4,0.1-0.8v-4.8c0-0.4,0-0.7-0.1-0.8c0-0.1-0.1-0.2-0.3-0.2
		c-0.1-0.1-0.4-0.1-0.7-0.1v-0.2h3.4c0.9,0,1.6,0.1,2,0.2c0.4,0.1,0.8,0.4,1,0.7c0.3,0.3,0.4,0.7,0.4,1.2c0,0.5-0.2,1-0.6,1.4
		c-0.3,0.2-0.6,0.4-1.1,0.5l1.8,2.5c0.2,0.3,0.4,0.5,0.5,0.6c0.1,0.1,0.3,0.2,0.5,0.2v0.2h-2.3l-2.4-3.4H92.2z M92.2,30.3v3.2h0.3
		c0.5,0,0.9,0,1.1-0.1c0.3-0.1,0.4-0.3,0.6-0.5c0.1-0.2,0.2-0.6,0.2-0.9c0-0.6-0.1-1-0.4-1.3c-0.3-0.3-0.7-0.4-1.3-0.4H92.2z"/>
	<path class="st2" d="M100.1,32.2v4c0,0.4,0,0.6,0.1,0.7c0.1,0.1,0.2,0.2,0.5,0.2v0.2H98v-0.2c0.2,0,0.4-0.1,0.5-0.2
		c0.1-0.1,0.1-0.3,0.1-0.7v-3c0-0.4,0-0.6-0.1-0.7c-0.1-0.1-0.2-0.2-0.5-0.2v-0.2H100.1z M99.4,29.7c0.2,0,0.4,0.1,0.6,0.2
		c0.2,0.2,0.2,0.4,0.2,0.6c0,0.2-0.1,0.4-0.2,0.6c-0.2,0.2-0.4,0.2-0.6,0.2c-0.2,0-0.4-0.1-0.6-0.2c-0.2-0.2-0.2-0.4-0.2-0.6
		c0-0.2,0.1-0.4,0.2-0.6C98.9,29.8,99.1,29.7,99.4,29.7z"/>
	<path class="st2" d="M103.8,32.2v0.7c0.3-0.3,0.5-0.5,0.8-0.6c0.2-0.1,0.5-0.2,0.8-0.2c0.3,0,0.6,0.1,0.8,0.3
		c0.2,0.2,0.4,0.4,0.4,0.7c0.1,0.2,0.1,0.6,0.1,1.2v2c0,0.4,0,0.6,0.1,0.7c0.1,0.1,0.2,0.2,0.4,0.2v0.2h-2.6v-0.2
		c0.2,0,0.3-0.1,0.4-0.2c0.1-0.1,0.1-0.3,0.1-0.7v-2.3c0-0.4,0-0.7,0-0.8s-0.1-0.2-0.2-0.3c-0.1-0.1-0.2-0.1-0.3-0.1
		c-0.3,0-0.6,0.2-0.9,0.7v2.7c0,0.4,0,0.6,0.1,0.7c0.1,0.1,0.2,0.2,0.4,0.2v0.2h-2.6v-0.2c0.2,0,0.4-0.1,0.5-0.2
		c0.1-0.1,0.1-0.3,0.1-0.7v-2.9c0-0.4,0-0.6-0.1-0.7c-0.1-0.1-0.2-0.2-0.4-0.2v-0.2H103.8z"/>
	<path class="st2" d="M111.6,32.3h1.7v0.6h-1c0.2,0.2,0.3,0.3,0.4,0.5c0.1,0.2,0.1,0.4,0.1,0.6c0,0.4-0.1,0.7-0.3,0.9
		c-0.2,0.3-0.5,0.5-0.8,0.6c-0.3,0.2-0.7,0.2-0.9,0.2c0,0-0.2,0-0.7,0c-0.2,0-0.3,0.1-0.4,0.2c-0.1,0.1-0.2,0.2-0.2,0.4
		c0,0.1,0,0.2,0.1,0.3c0.1,0.1,0.3,0.1,0.5,0.1l0.9,0c0.8,0,1.3,0.1,1.6,0.3c0.4,0.2,0.6,0.6,0.6,1.1c0,0.3-0.1,0.6-0.3,0.8
		c-0.2,0.3-0.4,0.4-0.7,0.6c-0.5,0.2-1,0.3-1.6,0.3c-0.5,0-0.9,0-1.3-0.1s-0.7-0.2-0.8-0.4c-0.2-0.2-0.2-0.3-0.2-0.5
		c0-0.2,0.1-0.3,0.2-0.5c0.1-0.1,0.4-0.2,0.7-0.3c-0.5-0.2-0.7-0.6-0.7-1c0-0.3,0.1-0.5,0.3-0.7c0.2-0.2,0.5-0.4,0.9-0.6
		c-0.5-0.2-0.8-0.4-1.1-0.7c-0.2-0.3-0.3-0.6-0.3-1c0-0.5,0.2-0.9,0.6-1.3c0.4-0.4,0.9-0.5,1.6-0.5
		C110.9,32.1,111.3,32.1,111.6,32.3z M110.4,38.1c-0.4,0-0.6,0-0.7,0.1c-0.2,0.1-0.3,0.3-0.3,0.5c0,0.2,0.1,0.4,0.3,0.5
		c0.2,0.2,0.6,0.2,1.2,0.2c0.5,0,0.9-0.1,1.2-0.2c0.3-0.1,0.4-0.3,0.4-0.6c0-0.1,0-0.2-0.1-0.2c-0.1-0.1-0.2-0.2-0.4-0.2
		C111.8,38.1,111.2,38.1,110.4,38.1z M110.7,32.4c-0.2,0-0.4,0.1-0.5,0.3c-0.1,0.2-0.2,0.7-0.2,1.3c0,0.5,0.1,0.9,0.2,1.1
		c0.1,0.2,0.3,0.3,0.5,0.3c0.2,0,0.4-0.1,0.5-0.3c0.1-0.2,0.2-0.6,0.2-1.2c0-0.7-0.1-1.1-0.2-1.3C111.1,32.5,110.9,32.4,110.7,32.4z
		"/>
	<path class="st2" d="M125,29.8v2.6h-0.2c-0.2-0.7-0.6-1.3-1.1-1.6c-0.5-0.4-1-0.6-1.6-0.6c-0.6,0-1,0.2-1.4,0.5
		c-0.4,0.3-0.6,0.7-0.8,1.3c-0.2,0.6-0.2,1.1-0.2,1.7c0,0.7,0.1,1.3,0.3,1.9c0.2,0.5,0.4,0.9,0.8,1.2c0.4,0.3,0.8,0.4,1.3,0.4
		c0.2,0,0.4,0,0.5-0.1c0.2,0,0.4-0.1,0.6-0.2v-1.5c0-0.3,0-0.5-0.1-0.6c0-0.1-0.1-0.2-0.2-0.2c-0.1-0.1-0.3-0.1-0.5-0.1h-0.2v-0.2
		h3.6v0.2c-0.3,0-0.5,0.1-0.6,0.1c-0.1,0.1-0.2,0.1-0.2,0.3c0,0.1,0,0.2,0,0.5v1.5c-0.5,0.2-1,0.4-1.5,0.5c-0.5,0.1-1,0.2-1.6,0.2
		c-0.7,0-1.3-0.1-1.7-0.3c-0.5-0.2-0.9-0.4-1.2-0.8c-0.4-0.3-0.6-0.7-0.8-1.1c-0.3-0.5-0.4-1.1-0.4-1.7c0-1.1,0.4-2.1,1.2-2.8
		c0.8-0.8,1.8-1.2,3-1.2c0.4,0,0.7,0,1,0.1c0.2,0,0.4,0.1,0.8,0.2c0.4,0.1,0.6,0.2,0.6,0.2c0.1,0,0.2,0,0.3-0.1
		c0.1-0.1,0.2-0.2,0.2-0.4H125z"/>
	<path class="st2" d="M128.9,32.2v1.2c0.3-0.5,0.6-0.9,0.9-1.1c0.3-0.2,0.5-0.3,0.7-0.3c0.2,0,0.4,0.1,0.5,0.2
		c0.1,0.1,0.2,0.3,0.2,0.5c0,0.2-0.1,0.4-0.2,0.6c-0.1,0.1-0.3,0.2-0.4,0.2c-0.2,0-0.4-0.1-0.5-0.2c-0.1-0.1-0.2-0.2-0.3-0.2
		c0,0-0.1,0-0.1,0c-0.1,0-0.2,0-0.3,0.1c-0.1,0.1-0.3,0.3-0.3,0.5c-0.1,0.4-0.2,0.7-0.2,1.2v1.2l0,0.3c0,0.2,0,0.3,0,0.4
		c0,0.1,0.1,0.2,0.2,0.2c0.1,0,0.2,0.1,0.4,0.1v0.2h-2.8v-0.2c0.2,0,0.4-0.1,0.5-0.2c0.1-0.1,0.1-0.4,0.1-0.8v-2.8
		c0-0.3,0-0.5,0-0.6c0-0.1-0.1-0.2-0.2-0.2c-0.1,0-0.2-0.1-0.4-0.1v-0.2H128.9z"/>
	<path class="st2" d="M134.4,32.1c0.4,0,0.9,0.1,1.2,0.3c0.4,0.2,0.7,0.6,0.9,1c0.2,0.4,0.3,0.9,0.3,1.4c0,0.7-0.2,1.3-0.6,1.8
		c-0.4,0.6-1.1,0.9-1.8,0.9c-0.8,0-1.4-0.3-1.8-0.8c-0.4-0.5-0.6-1.2-0.6-1.9c0-0.7,0.2-1.4,0.6-1.9
		C133.1,32.3,133.7,32.1,134.4,32.1z M134.4,32.5c-0.2,0-0.3,0.1-0.5,0.2c-0.1,0.1-0.2,0.4-0.3,0.8c0,0.4-0.1,1-0.1,1.7
		c0,0.4,0,0.8,0.1,1.1c0,0.3,0.1,0.5,0.3,0.6c0.1,0.1,0.3,0.2,0.4,0.2c0.2,0,0.3,0,0.4-0.1c0.1-0.1,0.2-0.3,0.3-0.5
		c0.1-0.3,0.1-1,0.1-2.1c0-0.6,0-1-0.1-1.3c-0.1-0.2-0.2-0.4-0.3-0.5C134.7,32.5,134.6,32.5,134.4,32.5z"/>
	<path class="st2" d="M143,32.2v4c0,0.4,0,0.6,0.1,0.7c0.1,0.1,0.2,0.2,0.4,0.2v0.2h-2.1v-0.7c-0.2,0.3-0.5,0.5-0.7,0.6
		c-0.2,0.1-0.5,0.2-0.8,0.2c-0.3,0-0.5-0.1-0.8-0.3c-0.2-0.2-0.4-0.4-0.5-0.6c-0.1-0.2-0.1-0.7-0.1-1.2v-2c0-0.4,0-0.6-0.1-0.7
		c-0.1-0.1-0.2-0.2-0.4-0.2v-0.2h2.1v3.5c0,0.4,0,0.6,0.1,0.7c0,0.1,0.1,0.2,0.2,0.2c0.1,0.1,0.2,0.1,0.3,0.1c0.1,0,0.2,0,0.4-0.1
		c0.1-0.1,0.3-0.3,0.5-0.6v-2.7c0-0.4,0-0.6-0.1-0.7c-0.1-0.1-0.2-0.2-0.4-0.2v-0.2H143z"/>
	<path class="st2" d="M146.7,36.8v1.9c0,0.3,0,0.4,0.1,0.5c0,0.1,0.1,0.2,0.2,0.2c0.1,0,0.3,0.1,0.5,0.1v0.2h-2.9v-0.2
		c0.2,0,0.4-0.1,0.5-0.2c0.1-0.1,0.1-0.3,0.1-0.7v-5.4c0-0.4,0-0.6-0.1-0.7c-0.1-0.1-0.2-0.2-0.5-0.2v-0.2h2.1v0.7
		c0.2-0.3,0.4-0.5,0.5-0.6c0.3-0.2,0.6-0.3,0.9-0.3c0.4,0,0.7,0.1,1,0.4c0.3,0.2,0.5,0.6,0.7,1c0.2,0.4,0.2,0.9,0.2,1.3
		c0,0.5-0.1,1-0.2,1.4c-0.2,0.4-0.4,0.8-0.7,1c-0.3,0.2-0.7,0.3-1.1,0.3c-0.3,0-0.5-0.1-0.8-0.2C147.1,37.2,146.9,37,146.7,36.8z
		 M146.7,36.3c0.3,0.4,0.6,0.7,1,0.7c0.2,0,0.4-0.1,0.5-0.3c0.2-0.3,0.3-0.9,0.3-1.7c0-0.9-0.1-1.5-0.3-1.8
		c-0.1-0.2-0.3-0.3-0.6-0.3c-0.4,0-0.7,0.3-0.9,0.8V36.3z"/>
</g>
</svg>
